<svg width="213" height="48" viewBox="0 0 213 48" fill="none" xmlns="http://www.w3.org/2000/svg">
<path d="M0 4C0 1.79086 1.79086 0 4 0H209C211.209 0 213 1.79086 213 4V44C213 46.2091 211.209 48 209 48H4C1.79086 48 0 46.2091 0 44V4Z" fill="#004C97"/>
<path d="M17.3743 30V18.3636H21.7379C22.6319 18.3636 23.3819 18.5303 23.9879 18.8636C24.5978 19.197 25.058 19.6534 25.3686 20.233C25.683 20.8125 25.8402 21.4735 25.8402 22.2159C25.8402 22.9621 25.683 23.625 25.3686 24.2045C25.0542 24.7841 24.5902 25.2405 23.9766 25.5739C23.3629 25.9034 22.6072 26.0682 21.7095 26.0682H19.4822V30H17.3743ZM19.4822 24.3352H21.4254C22.2095 24.3352 22.7834 24.1364 23.147 23.7386C23.5107 23.3409 23.6925 22.8333 23.6925 22.2159C23.6925 21.5947 23.5107 21.0909 23.147 20.7045C22.7834 20.3182 22.2057 20.125 21.4141 20.125H19.4822V24.3352ZM29.9354 30.1761C29.102 30.1761 28.407 29.9527 27.8501 29.5057C27.2933 29.0587 27.0149 28.4072 27.0149 27.5511C27.0149 26.8958 27.1721 26.3883 27.4865 26.0284C27.8047 25.6648 28.2157 25.4015 28.7195 25.2386C29.227 25.072 29.763 24.9583 30.3274 24.8977C31.0964 24.8144 31.6475 24.7367 31.9808 24.6648C32.3179 24.5928 32.4865 24.4091 32.4865 24.1136V24.0795C32.4865 23.6515 32.3596 23.3201 32.1058 23.0852C31.852 22.8504 31.4865 22.733 31.0092 22.733C30.5054 22.733 30.1058 22.8428 29.8104 23.0625C29.5187 23.2822 29.3217 23.5417 29.2195 23.8409L27.299 23.5682C27.5263 22.7727 27.9695 22.1723 28.6286 21.767C29.2914 21.3617 30.0812 21.1591 30.9979 21.1591C31.4145 21.1591 31.8312 21.2083 32.2479 21.3068C32.6645 21.4053 33.0452 21.5682 33.3899 21.7955C33.7384 22.0227 34.0168 22.3295 34.2251 22.7159C34.4373 23.1023 34.5433 23.5833 34.5433 24.1591V30H32.5661V28.8011H32.4979C32.3123 29.1686 32.0092 29.4905 31.5888 29.767C31.1721 30.0398 30.621 30.1761 29.9354 30.1761ZM30.4695 28.6648C31.0907 28.6648 31.5831 28.4867 31.9467 28.1307C32.3104 27.7746 32.4922 27.3542 32.4922 26.8693V25.8409C32.4051 25.9129 32.2441 25.9773 32.0092 26.0341C31.7782 26.0871 31.532 26.1326 31.2706 26.1705C31.0092 26.2083 30.7876 26.2405 30.6058 26.267C30.1475 26.3314 29.7649 26.4583 29.4581 26.6477C29.1513 26.8333 28.9979 27.1231 28.9979 27.517C28.9979 27.8958 29.1361 28.1818 29.4126 28.375C29.6892 28.5682 30.0414 28.6648 30.4695 28.6648ZM40.407 33.4205C39.2971 33.4205 38.424 33.2064 37.7876 32.7784C37.1551 32.3542 36.7441 31.8447 36.5547 31.25L38.407 30.8011C38.532 31.0398 38.7479 31.2765 39.0547 31.5114C39.3615 31.7462 39.8236 31.8636 40.4411 31.8636C41.0282 31.8636 41.5111 31.7235 41.8899 31.4432C42.2725 31.1629 42.4638 30.7102 42.4638 30.0852V28.4318H42.3615C42.2554 28.6439 42.1001 28.8617 41.8956 29.0852C41.6948 29.3087 41.4278 29.4962 41.0945 29.6477C40.7649 29.7992 40.3501 29.875 39.8501 29.875C39.1797 29.875 38.5717 29.7178 38.0263 29.4034C37.4846 29.0852 37.0528 28.6098 36.7308 27.9773C36.4126 27.3447 36.2536 26.5549 36.2536 25.608C36.2536 24.6496 36.4126 23.8409 36.7308 23.1818C37.0528 22.5189 37.4865 22.017 38.032 21.6761C38.5774 21.3314 39.1854 21.1591 39.8558 21.1591C40.371 21.1591 40.7933 21.2462 41.1229 21.4205C41.4562 21.5909 41.7195 21.7973 41.9126 22.0398C42.1096 22.2784 42.2592 22.5038 42.3615 22.7159H42.4751V21.2727H44.5036V30.142C44.5036 30.8731 44.3255 31.4811 43.9695 31.9659C43.6134 32.4545 43.1267 32.8182 42.5092 33.0568C41.8956 33.2992 41.1948 33.4205 40.407 33.4205ZM40.424 28.2614C41.0793 28.2614 41.585 28.0265 41.9411 27.5568C42.2971 27.0833 42.4751 26.4299 42.4751 25.5966C42.4751 24.7708 42.299 24.1061 41.9467 23.6023C41.5945 23.0985 41.0869 22.8466 40.424 22.8466C39.7384 22.8466 39.2214 23.108 38.8729 23.6307C38.5244 24.1496 38.3501 24.8049 38.3501 25.5966C38.3501 26.3996 38.5263 27.0455 38.8786 27.5341C39.2308 28.0189 39.746 28.2614 40.424 28.2614ZM49.1229 30.1761C48.2895 30.1761 47.5945 29.9527 47.0376 29.5057C46.4808 29.0587 46.2024 28.4072 46.2024 27.5511C46.2024 26.8958 46.3596 26.3883 46.674 26.0284C46.9922 25.6648 47.4032 25.4015 47.907 25.2386C48.4145 25.072 48.9505 24.9583 49.5149 24.8977C50.2839 24.8144 50.835 24.7367 51.1683 24.6648C51.5054 24.5928 51.674 24.4091 51.674 24.1136V24.0795C51.674 23.6515 51.5471 23.3201 51.2933 23.0852C51.0395 22.8504 50.674 22.733 50.1967 22.733C49.6929 22.733 49.2933 22.8428 48.9979 23.0625C48.7062 23.2822 48.5092 23.5417 48.407 23.8409L46.4865 23.5682C46.7138 22.7727 47.157 22.1723 47.8161 21.767C48.4789 21.3617 49.2687 21.1591 50.1854 21.1591C50.602 21.1591 51.0187 21.2083 51.4354 21.3068C51.852 21.4053 52.2327 21.5682 52.5774 21.7955C52.9259 22.0227 53.2043 22.3295 53.4126 22.7159C53.6248 23.1023 53.7308 23.5833 53.7308 24.1591V30H51.7536V28.8011H51.6854C51.4998 29.1686 51.1967 29.4905 50.7763 29.767C50.3596 30.0398 49.8085 30.1761 49.1229 30.1761ZM49.657 28.6648C50.2782 28.6648 50.7706 28.4867 51.1342 28.1307C51.4979 27.7746 51.6797 27.3542 51.6797 26.8693V25.8409C51.5926 25.9129 51.4316 25.9773 51.1967 26.0341C50.9657 26.0871 50.7195 26.1326 50.4581 26.1705C50.1967 26.2083 49.9751 26.2405 49.7933 26.267C49.335 26.3314 48.9524 26.4583 48.6456 26.6477C48.3388 26.8333 48.1854 27.1231 48.1854 27.517C48.1854 27.8958 48.3236 28.1818 48.6001 28.375C48.8767 28.5682 49.2289 28.6648 49.657 28.6648ZM55.799 30V21.2727H57.7933V22.7273H57.8842C58.0433 22.2197 58.3161 21.8295 58.7024 21.5568C59.0926 21.2841 59.5376 21.1477 60.0376 21.1477C60.1513 21.1477 60.2782 21.1534 60.4183 21.1648C60.5623 21.1723 60.6816 21.1856 60.7763 21.2045V23.0966C60.6892 23.0663 60.5509 23.0398 60.3615 23.017C60.1759 22.9905 59.996 22.9773 59.8217 22.9773C59.2573 22.9773 58.7876 23.1553 58.4126 23.5114C58.0414 23.8636 57.8558 24.3163 57.8558 24.8693V30H55.799ZM69.9183 30.1705C69.0509 30.1705 68.3047 29.9792 67.6797 29.5966C67.0547 29.214 66.5736 28.6837 66.2365 28.0057C65.9032 27.3277 65.7365 26.5492 65.7365 25.6705C65.7365 24.7803 65.907 23.9981 66.2479 23.3239C66.5888 22.6458 67.0698 22.1155 67.6911 21.733C68.3161 21.3504 69.0547 21.1591 69.907 21.1591C70.6191 21.1591 71.2479 21.2898 71.7933 21.5511C72.3388 21.8087 72.7744 22.1723 73.1001 22.642C73.4259 23.1117 73.6115 23.6629 73.657 24.2955H71.6911C71.6115 23.875 71.4221 23.5246 71.1229 23.2443C70.8274 22.9602 70.4316 22.8182 69.9354 22.8182C69.3028 22.8182 68.7914 23.0682 68.4013 23.5682C68.0149 24.0644 67.8217 24.7538 67.8217 25.6364C67.8217 26.5265 68.013 27.2254 68.3956 27.733C68.782 28.2405 69.2952 28.4943 69.9354 28.4943C70.3861 28.4943 70.7687 28.3655 71.0831 28.108C71.4013 27.8504 71.6039 27.4867 71.6911 27.017H73.657C73.6077 27.6345 73.4259 28.1799 73.1115 28.6534C72.7971 29.1269 72.3691 29.4981 71.8274 29.767C71.2857 30.036 70.6494 30.1705 69.9183 30.1705ZM79.1527 30.1705C78.3004 30.1705 77.5618 29.983 76.9368 29.608C76.3118 29.233 75.8269 28.7083 75.4822 28.0341C75.1413 27.3561 74.9709 26.5682 74.9709 25.6705C74.9709 24.7689 75.1413 23.9811 75.4822 23.3068C75.8269 22.6288 76.3118 22.1023 76.9368 21.7273C77.5618 21.3485 78.3004 21.1591 79.1527 21.1591C80.005 21.1591 80.7436 21.3485 81.3686 21.7273C81.9974 22.1023 82.4822 22.6288 82.8232 23.3068C83.1641 23.9811 83.3345 24.7689 83.3345 25.6705C83.3345 26.5682 83.1641 27.3561 82.8232 28.0341C82.4822 28.7083 81.9974 29.233 81.3686 29.608C80.7436 29.983 80.005 30.1705 79.1527 30.1705ZM79.1641 28.5227C79.63 28.5227 80.0163 28.3958 80.3232 28.142C80.6338 27.8883 80.8648 27.5455 81.0163 27.1136C81.1716 26.678 81.2493 26.1951 81.2493 25.6648C81.2493 25.1307 81.1716 24.6477 81.0163 24.2159C80.8648 23.7803 80.6338 23.4337 80.3232 23.1761C80.0163 22.9186 79.63 22.7898 79.1641 22.7898C78.6944 22.7898 78.3023 22.9186 77.9879 23.1761C77.6773 23.4337 77.4444 23.7803 77.2891 24.2159C77.1338 24.6477 77.0561 25.1307 77.0561 25.6648C77.0561 26.1951 77.1338 26.678 77.2891 27.1136C77.4444 27.5455 77.6773 27.8883 77.9879 28.142C78.3023 28.3958 78.6944 28.5227 79.1641 28.5227ZM87.1371 24.8864V30H85.0803V21.2727H87.0462V22.7557H87.1484C87.3492 22.2708 87.6693 21.8845 88.1087 21.5966C88.5518 21.3049 89.0992 21.1591 89.7507 21.1591C90.6522 21.1591 91.3757 21.4451 91.9212 22.017C92.4704 22.589 92.7431 23.3977 92.7393 24.4432V30H90.6825V24.7614C90.6825 24.178 90.531 23.7216 90.228 23.392C89.9287 23.0625 89.514 22.8977 88.9837 22.8977C88.442 22.8977 87.9988 23.072 87.6541 23.4205C87.3094 23.7652 87.1371 24.2538 87.1371 24.8864Z" fill="white"/>
<path d="M118.409 26.288C119.141 30.8496 116.086 35.1487 111.584 35.8904C107.083 36.632 102.84 33.5354 102.108 28.9738C101.376 24.4122 104.432 20.1131 108.934 19.3714C113.435 18.6298 117.678 21.7264 118.409 26.288Z" fill="url(#paint0_linear)"/>
<path d="M107.972 19.6C110.661 20.1318 114.058 20.4379 118.27 25.7014C118.358 25.6419 117.871 23.9012 118.521 23.3602C119.324 22.6917 121.028 23.189 121.304 22.6003C121.737 21.1236 112.559 18.2086 107.972 19.6Z" fill="url(#paint1_linear)"/>
<path d="M124.02 21.6635C123.879 16.4712 127.918 12.1463 133.042 12.0036C138.166 11.8609 142.434 15.9545 142.575 21.1468C142.716 26.3391 138.676 30.664 133.552 30.8067C128.428 30.9494 124.161 26.8559 124.02 21.6635Z" fill="url(#paint2_linear)"/>
<path d="M134.658 30.6981C131.74 29.6973 128.002 28.8405 124.089 22.338C123.982 22.3909 124.266 24.4038 123.462 24.9078C122.469 25.5305 120.645 24.7178 120.25 25.3318C119.55 26.9109 129.342 31.5515 134.658 30.6981Z" fill="url(#paint3_linear)"/>
<path d="M173.459 19.3643C172.437 19.3643 171.346 19.709 170.733 20.4329C170.699 19.7435 170.29 19.3643 169.609 19.3643C168.825 19.3643 168.451 19.778 168.451 20.5708V31.7051C168.451 32.5669 168.962 32.9806 169.711 32.9806C170.495 32.9806 170.972 32.5324 170.972 31.7051V28.1201C171.551 28.844 172.505 29.0508 173.527 29.0508C176.218 29.0508 177.445 26.7412 177.445 24.2593C177.445 20.9155 175.571 19.3643 173.459 19.3643ZM172.879 27.017C171.312 27.0515 170.835 25.4658 170.835 24.1558C170.835 22.708 171.38 21.3637 172.879 21.3637C174.242 21.3981 174.89 22.6391 174.89 24.1558C174.924 25.3624 174.515 27.017 172.879 27.017ZM183.952 19.3643C182.93 19.3643 181.839 19.709 181.226 20.4329C181.158 19.7435 180.783 19.3643 180.068 19.3643C179.284 19.3643 178.91 19.778 178.91 20.5708V31.7051C178.91 32.5669 179.421 32.9806 180.17 32.9806C180.954 32.9806 181.431 32.5324 181.431 31.7051V28.1201C182.01 28.844 182.964 29.0508 183.986 29.0508C186.677 29.0508 187.904 26.7412 187.904 24.2593C187.938 20.9155 186.064 19.3643 183.952 19.3643ZM183.373 27.017C181.805 27.0515 181.328 25.4658 181.328 24.1558C181.328 22.708 181.874 21.3637 183.373 21.3637C184.735 21.3981 185.383 22.6391 185.383 24.1558C185.383 25.3624 185.008 27.017 183.373 27.017ZM166.441 26.3276V22.0186C166.441 20.1572 164.737 19.3643 162.318 19.3643C159.695 19.3643 158.264 20.6742 158.264 21.7084C158.264 22.2254 158.707 22.708 159.354 22.708C160.376 22.708 160.41 21.2947 162.284 21.2947C163.136 21.2947 163.885 21.605 163.885 22.3633C163.885 23.0872 163.408 23.2596 162.795 23.3285L161.228 23.5009C159.661 23.6732 157.685 24.3627 157.685 26.4654C157.685 28.2924 159.388 29.0163 160.887 29.0853C162.455 29.1542 163.545 28.6716 164.294 28.0856C164.431 28.6716 164.839 29.0853 165.657 29.0853C166.236 29.0853 166.747 28.6716 166.747 28.0856C166.747 27.6719 166.441 27.3962 166.441 26.3276ZM163.885 24.7074C163.885 26.3276 163.034 27.3617 161.637 27.3617C160.751 27.3617 160.24 26.8791 160.24 26.2931C160.24 25.5002 160.819 25.19 161.875 25.0176L162.795 24.8798C163.102 24.8108 163.613 24.7419 163.885 24.4661V24.7074ZM193.832 30.085C193.218 31.843 192.537 32.7737 190.936 32.7737H190.799C189.675 32.7737 189.198 32.2222 189.198 31.6017C189.198 30.9123 189.675 30.5676 190.357 30.5676H190.527C190.868 30.5676 191.242 30.5331 191.515 29.7402L191.617 29.4645L188.96 21.7773C188.755 21.1568 188.653 20.8811 188.653 20.5708C188.653 19.8814 189.198 19.3298 189.88 19.3298C190.561 19.3298 191.038 19.709 191.174 20.295L192.81 26.3276H192.844L194.479 20.295C194.649 19.709 195.092 19.3298 195.773 19.3298C196.455 19.3298 197 19.8469 197 20.5708C197 20.8811 196.898 21.1568 196.693 21.7773L193.832 30.085ZM153.972 30.085C153.358 31.843 152.677 32.7737 151.076 32.7737H150.905C149.781 32.7737 149.304 32.2222 149.304 31.6017C149.304 30.9123 149.781 30.5676 150.462 30.5676H150.633C150.973 30.5676 151.348 30.5331 151.621 29.7402L151.723 29.4645L149.066 21.7773C148.861 21.1913 148.759 20.8811 148.759 20.6053C148.759 19.9159 149.304 19.3643 149.985 19.3643C150.667 19.3643 151.144 19.7435 151.28 20.3295L152.915 26.362H152.949L154.585 20.3295C154.755 19.7435 155.198 19.3643 155.879 19.3643C156.561 19.3643 157.106 19.8814 157.106 20.6053C157.106 20.9155 157.004 21.1913 156.799 21.8118L153.972 30.085Z" fill="white"/>
<defs>
<linearGradient id="paint0_linear" x1="105.306" y1="20.9873" x2="107.927" y2="36.8985" gradientUnits="userSpaceOnUse">
<stop stop-color="#2CCAFE"/>
<stop offset="1" stop-color="#0A91E7"/>
</linearGradient>
<linearGradient id="paint1_linear" x1="117.012" y1="19.8161" x2="113.967" y2="25.4832" gradientUnits="userSpaceOnUse">
<stop stop-color="#2CCAFE"/>
<stop offset="1" stop-color="#0A91E7"/>
</linearGradient>
<linearGradient id="paint2_linear" x1="137.832" y1="29.5577" x2="137.328" y2="11.4341" gradientUnits="userSpaceOnUse">
<stop stop-color="#FF8741"/>
<stop offset="1" stop-color="#FFA537"/>
</linearGradient>
<linearGradient id="paint3_linear" x1="126.835" y1="31.3864" x2="129.16" y2="27.2189" gradientUnits="userSpaceOnUse">
<stop stop-color="#FF8043"/>
<stop offset="1" stop-color="#FFA636"/>
</linearGradient>
</defs>
</svg>
