<svg width="96" height="26" viewBox="0 0 96 26" fill="none" xmlns="http://www.w3.org/2000/svg">
<ellipse rx="8.31262" ry="8.40566" transform="matrix(0.986737 -0.162325 0.158656 0.987334 9.21885 16.7077)" fill="url(#paint0_linear)"/>
<path d="M6.937 8.63689C9.64389 9.1716 13.0621 9.47956 17.3002 14.7692C17.3889 14.7094 16.8992 12.9602 17.5534 12.4165C18.3616 11.7449 20.0761 12.2448 20.3537 11.6532C20.7897 10.1694 11.5534 7.23914 6.937 8.63689Z" fill="url(#paint1_linear)"/>
<ellipse rx="9.35767" ry="9.46795" transform="matrix(-0.999616 0.0277214 -0.0270789 -0.999633 32.3437 10.3906)" fill="url(#paint2_linear)"/>
<path d="M33.7562 19.7491C30.8146 18.7413 27.0456 17.8785 23.1006 11.3314C22.9927 11.3847 23.2797 13.4113 22.469 13.9186C21.4674 14.5455 19.6282 13.7272 19.2306 14.3452C18.524 15.935 28.3969 20.6079 33.7562 19.7491Z" fill="url(#paint3_linear)"/>
<path d="M72.4586 8.36455C71.4366 8.36455 70.3464 8.70927 69.7332 9.43317C69.6991 8.74374 69.2903 8.36455 68.6089 8.36455C67.8253 8.36455 67.4506 8.77821 67.4506 9.57106V20.7054C67.4506 21.5671 67.9616 21.9808 68.7111 21.9808C69.4947 21.9808 69.9716 21.5327 69.9716 20.7054V17.1203C70.5508 17.8442 71.5047 18.0511 72.5268 18.0511C75.2182 18.0511 76.4447 15.7415 76.4447 13.2595C76.4447 9.91577 74.5709 8.36455 72.4586 8.36455ZM71.8795 16.0172C70.3123 16.0517 69.8354 14.466 69.8354 13.1561C69.8354 11.7083 70.3805 10.3639 71.8795 10.3639C73.2422 10.3984 73.8895 11.6393 73.8895 13.1561C73.9236 14.3626 73.5148 16.0172 71.8795 16.0172ZM82.9517 8.36455C81.9297 8.36455 80.8395 8.70927 80.2262 9.43317C80.1581 8.74374 79.7834 8.36455 79.0679 8.36455C78.2843 8.36455 77.9096 8.77821 77.9096 9.57106V20.7054C77.9096 21.5671 78.4206 21.9808 79.1701 21.9808C79.9537 21.9808 80.4307 21.5327 80.4307 20.7054V17.1203C81.0098 17.8442 81.9637 18.0511 82.9858 18.0511C85.6772 18.0511 86.9037 15.7415 86.9037 13.2595C86.9377 9.91577 85.064 8.36455 82.9517 8.36455ZM82.3726 16.0172C80.8054 16.0517 80.3285 14.466 80.3285 13.1561C80.3285 11.7083 80.8736 10.3639 82.3726 10.3639C83.7353 10.3984 84.3826 11.6393 84.3826 13.1561C84.3826 14.3626 84.0078 16.0172 82.3726 16.0172ZM65.4405 15.3278V11.0189C65.4405 9.1574 63.7371 8.36455 61.3183 8.36455C58.695 8.36455 57.2641 9.67447 57.2641 10.7086C57.2641 11.2257 57.707 11.7083 58.3543 11.7083C59.3764 11.7083 59.4104 10.295 61.2842 10.295C62.1359 10.295 62.8854 10.6052 62.8854 11.3636C62.8854 12.0875 62.4085 12.2598 61.7952 12.3288L60.2281 12.5011C58.6609 12.6735 56.685 13.3629 56.685 15.4657C56.685 17.2927 58.3884 18.0166 59.8874 18.0855C61.4545 18.1545 62.5447 17.6719 63.2942 17.0858C63.4305 17.6719 63.8393 18.0855 64.657 18.0855C65.2361 18.0855 65.7472 17.6719 65.7472 17.0858C65.7472 16.6722 65.4405 16.3964 65.4405 15.3278ZM62.8854 13.7076C62.8854 15.3278 62.0337 16.3619 60.6369 16.3619C59.7511 16.3619 59.2401 15.8793 59.2401 15.2933C59.2401 14.5005 59.8193 14.1902 60.8754 14.0179L61.7952 13.88C62.1018 13.8111 62.6129 13.7421 62.8854 13.4663V13.7076ZM92.8316 19.0852C92.2183 20.8432 91.537 21.774 89.9358 21.774H89.7995C88.6752 21.774 88.1983 21.2224 88.1983 20.6019C88.1983 19.9125 88.6752 19.5678 89.3566 19.5678H89.5269C89.8676 19.5678 90.2424 19.5333 90.5149 18.7405L90.6171 18.4647L87.9598 10.7776C87.7554 10.1571 87.6532 9.8813 87.6532 9.57106C87.6532 8.88162 88.1983 8.33008 88.8796 8.33008C89.561 8.33008 90.038 8.70927 90.1742 9.29528L91.8095 15.3278H91.8436L93.4789 9.29528C93.6492 8.70927 94.0921 8.33008 94.7735 8.33008C95.4548 8.33008 95.9999 8.84715 95.9999 9.57106C95.9999 9.8813 95.8977 10.1571 95.6933 10.7776L92.8316 19.0852ZM52.9715 19.0852C52.3583 20.8432 51.6769 21.774 50.0757 21.774H49.9053C48.7811 21.774 48.3041 21.2224 48.3041 20.6019C48.3041 19.9125 48.7811 19.5678 49.4625 19.5678H49.6328C49.9735 19.5678 50.3482 19.5333 50.6208 18.7405L50.723 18.4647L48.0656 10.7776C47.8612 10.1915 47.759 9.8813 47.759 9.60553C47.759 8.9161 48.3041 8.36455 48.9855 8.36455C49.6669 8.36455 50.1438 8.74374 50.2801 9.32975L51.9154 15.3623H51.9495L53.5847 9.32975C53.7551 8.74374 54.198 8.36455 54.8793 8.36455C55.5607 8.36455 56.1058 8.88162 56.1058 9.60553C56.1058 9.91577 56.0036 10.1915 55.7992 10.812L52.9715 19.0852Z" fill="white"/>
<defs>
<linearGradient id="paint0_linear" x1="4.45029" y1="1.0094" x2="4.45029" y2="17.2135" gradientUnits="userSpaceOnUse">
<stop stop-color="white"/>
<stop offset="1" stop-color="#D2D6DE"/>
</linearGradient>
<linearGradient id="paint1_linear" x1="16.0345" y1="8.85501" x2="13.2429" y2="13.4848" gradientUnits="userSpaceOnUse">
<stop stop-color="white"/>
<stop offset="1" stop-color="#D2D6DE"/>
</linearGradient>
<linearGradient id="paint2_linear" x1="5.00977" y1="1.13697" x2="5.00977" y2="19.3889" gradientUnits="userSpaceOnUse">
<stop stop-color="#D2D6DE"/>
<stop offset="1" stop-color="white"/>
</linearGradient>
<linearGradient id="paint3_linear" x1="23.6358" y1="18.1241" x2="27.4431" y2="13.3853" gradientUnits="userSpaceOnUse">
<stop stop-color="#D2D6DE"/>
<stop offset="1" stop-color="white"/>
</linearGradient>
</defs>
</svg>
